<?xml version="1.0" encoding="UTF-8" standalone="no"?>
<svg
   xmlns:dc="http://purl.org/dc/elements/1.1/"
   xmlns:cc="http://creativecommons.org/ns#"
   xmlns:rdf="http://www.w3.org/1999/02/22-rdf-syntax-ns#"
   xmlns:svg="http://www.w3.org/2000/svg"
   xmlns="http://www.w3.org/2000/svg"
   xmlns:sodipodi="http://sodipodi.sourceforge.net/DTD/sodipodi-0.dtd"
   xmlns:inkscape="http://www.inkscape.org/namespaces/inkscape"
   version="1.1"
   id="svg2"
   xml:space="preserve"
   width="6680"
   height="4261.8398"
   viewBox="0 0 6680 4261.8398"
   sodipodi:docname="shutterstock_1910264557.eps"><metadata
     id="metadata8"><rdf:RDF><cc:Work
         rdf:about=""><dc:format>image/svg+xml</dc:format><dc:type
           rdf:resource="http://purl.org/dc/dcmitype/StillImage" /></cc:Work></rdf:RDF></metadata><defs
     id="defs6" /><sodipodi:namedview
     pagecolor="#ffffff"
     bordercolor="#666666"
     borderopacity="1"
     objecttolerance="10"
     gridtolerance="10"
     guidetolerance="10"
     inkscape:pageopacity="0"
     inkscape:pageshadow="2"
     inkscape:window-width="640"
     inkscape:window-height="480"
     id="namedview4" /><g
     id="g10"
     inkscape:groupmode="layer"
     inkscape:label="ink_ext_XXXXXX"
     transform="matrix(1.3333333,0,0,-1.3333333,0,4261.84)"><g
       id="g12"
       transform="scale(0.1)"><path
         d="M 50100,0 H 0 V 31963.8 H 50100 V 0"
         style="fill:#ffffff;fill-opacity:1;fill-rule:nonzero;stroke:none"
         id="path14" /><path
         d="m 6279.79,26900.9 c -3.64,4.5 -8.32,-14.9 -11.05,-19.9 -5.56,-10.5 -12.55,-20.2 -19.33,-29.9 -20.85,-29.9 -43.29,-58.3 -65.61,-87.1 -12.38,-16 -33.39,-32.3 -42.44,-50.4 -1.76,-3.6 5.88,-18.2 6.82,-21.4 5.93,-20 10.12,-40.5 13.21,-61.4 8.76,-58.8 2.63,-119.9 -13.26,-177.1 -9.49,-34.1 -22.92,-67.2 -38,-99.2 -2.38,-5.1 -31.33,-51.1 -21.04,-53.2 14.9,-3.2 37.15,8.4 50.33,13.7 44.57,17.6 86.64,44 124.71,72.9 73.39,55.6 137.75,134.5 162.36,224.3 34.96,127.9 -22.53,242.8 -146.7,288.7"
         style="fill:#fab723;fill-opacity:1;fill-rule:evenodd;stroke:none"
         id="path16" /><path
         d="m 8888.44,28270.3 c 0,0 -119.28,-46 -137.51,-56.2 -41.14,-23.1 -188.86,-209.9 -184.59,-217.5 15.62,-27.5 20.39,-47.2 25.32,-78.2 24.79,-156.2 -40.03,-251.2 -137.14,-374 -65.49,-82.8 -147.61,-148.2 -240.23,-198.5 -29.72,-16.1 -60.04,-29.5 -91.88,-40.9 -3.66,-1.4 -49.68,-18.9 -45.73,-21.3 15.09,-9.5 47.4,-6.6 64.06,-6.9 67.6,-1.5 136.12,9.8 201.19,27.4 250.67,68.1 533.6,285.3 593.9,548.9 25.71,112.1 0.21,223.8 -29.92,332.2 -2.47,8.9 -17.47,85 -17.47,85"
         style="fill:#fabc2d;fill-opacity:1;fill-rule:evenodd;stroke:none"
         id="path18" /><path
         d="m 15108.5,22200.1 c -665.2,-177.2 -478.5,-756 -434.5,-801.4 408.8,-421.5 925.3,131.9 925.3,131.9 0,0 45.3,-55.3 102.8,-136.9 23,-32.6 112,-138.2 93.3,-182.8 -23,-54.3 -236,-146.2 -284.5,-179 -385.6,-260.1 -901.3,-388.1 -1299.1,-77.1 -149.7,117 -256.7,278.8 -332.5,451.2 -60.1,136.7 -87.4,284.7 -78.5,433.9 32.3,541.2 462.3,774.4 933.4,599.1 104.4,-38.8 397.6,-192.2 374.3,-238.9"
         style="fill:#fab21a;fill-opacity:1;fill-rule:evenodd;stroke:none"
         id="path20" /><path
         d="m 11287.7,25906.3 c -0.6,-25.2 -100.6,-98.4 -117.5,-119.2 -87.5,-108.5 -93.7,-271.4 -3.9,-381 91,-110.8 308.8,-141 422.9,-45.4 17,14.2 108,79.9 126,76.9 15.3,-2.5 -6,11.4 0,0 31.7,-60.4 58.4,-122.9 91.1,-182.9 24.3,-44.4 137.1,-167.4 107.6,-220.3 -57.6,-103.2 -250.2,-181.8 -347.4,-234.8 -347.8,-190 -836.8,-355.4 -1145.7,-0.8 -52.8,60.5 -97,128.5 -130.4,201.5 -148.1,324.7 -26.5,730.2 182.7,999.4 75.3,97 167.2,200.9 291.2,232.3 95.2,24.1 178.2,26.5 270.6,-5.5 118,-40.9 170.1,-237.4 252.8,-320.2"
         style="fill:#f8a116;fill-opacity:1;fill-rule:evenodd;stroke:none"
         id="path22" /><path
         d="m 4925.24,20186.2 c 51.8,3.8 112.89,42 176.65,34.1 247.86,-30.7 404.28,-295.6 438.51,-521.5 17.23,-113.8 19.04,-249.2 -34.5,-354.6 -22.94,-45.1 -56.73,-81 -87.41,-120.7 -4.54,-5.9 -32.75,-36.2 -18.59,-40.1 36.97,-10.5 93.2,17.9 127.23,28.6 131.45,41.4 245.26,97.1 321.6,217.7 182.95,288.9 165.79,765.2 -76.81,1018.3 -50.37,52.5 -113.77,105.5 -181.18,134.6 -201.99,86.8 -518.06,55.3 -642.62,-142.2 -36.53,-58 -62.17,-284.9 -22.88,-254.2"
         style="fill:#f8a116;fill-opacity:1;fill-rule:evenodd;stroke:none"
         id="path24" /><path
         d="m 4975.71,26186.2 c 48.43,38.5 844.09,475.2 844.09,475.2 0,0 119.25,-284 343.7,-162.6 267.98,144.9 113.66,402.4 113.66,402.4 l 1404.83,772.8 c 219.99,-312.2 569.61,-267.5 849.76,-119.3 209.95,110.9 348.89,394.2 223.19,662.9 0,0 878.92,377.2 945.26,352.4 138.89,-52.1 279.15,-630.1 346.7,-756.4 249.7,-466.9 1263.9,-1904.4 1263.9,-1904.4 0,0 -220.6,39.3 -585.1,-185.2 -245.3,-150.9 -321.3,-469.9 -97.3,-659.2 356.7,-301.2 1045.1,448.5 1018.5,458.5 -21.2,7.9 414.8,-448 566.4,-582.8 413.2,-367.3 716.6,-821.4 1088.6,-1224.9 500,-542.4 1812.1,-1481 1802.9,-1481 -117.8,0 -454.9,168.5 -716.1,-162.1 -145.1,-183.6 -189.5,-469.3 -44.9,-634 599.2,-681.4 1075.2,324.8 1111.1,320.3 3,-0.3 511.8,-632.7 542.6,-677 36.9,-53 329.4,-397.6 314.5,-457.2 -12.6,-50.4 -634.1,-640.4 -841.1,-820.3 -743.3,-645.8 -1607.6,-1184.1 -2444.2,-1698.5 -891,-547.7 -1817.2,-1050.3 -2691.3,-1623.4 -97.5,-64 -813.49,-509.7 -918.1,-485.6 -98.69,22.8 -257.3,544.8 -300.55,629.4 -341.47,669.8 -732.83,1313 -1084.2,1977.8 -1241.92,2350 -3291.57,4765.7 -3056.84,7582.2"
         style="fill:#fbcc4d;fill-opacity:1;fill-rule:evenodd;stroke:none"
         id="path26" /><path
         d="m 4977.04,26188.8 c -161.05,-384 -246.33,-1209.8 -272.17,-1619 -52.15,-825.5 -152.38,-3715.9 211.15,-4382.5 14.68,-26.8 86.73,88.9 95.72,102.6 60.14,91.7 173.43,186.4 289.85,181.2 246.84,-10.8 368.76,-334.2 419.91,-534.8 183.66,-720.4 -484.75,-609.2 -508.96,-808.8 -29.65,-244.9 537.94,-2178.9 693.34,-2441.8 113.4,-192 2477.69,-562.7 2827.57,-603.1 95.58,-11 705.54,-103.1 726.65,-32.8 21,70.1 -550.83,1364.4 -602.88,1471.3 -644.81,1322.4 -1295.84,2651.5 -1836.22,4021 -332.83,843.4 -637.84,1732.7 -1053.24,2539.7 -288.85,561.1 -716.61,1079.5 -941.49,1671.3 -54.05,142.4 -4.28,300.8 -49.23,435.7"
         style="fill:#fabc2d;fill-opacity:1;fill-rule:evenodd;stroke:none"
         id="path28" /><path
         d="m 4979.67,24210.2 c 23.55,21.2 4.94,-63.5 3.81,-95.2 -2.49,-69.6 -7.5,-139.1 -12.85,-208.6 -15.74,-204.6 -26.24,-409.2 -29.69,-614.3 -9.1,-541.8 -109.96,-1450.6 14.63,-1943 185.72,-734.2 1041.73,-208.5 1423.1,-1215.6 339.89,-897.8 -217.93,-939.4 -354.1,-1531.8 -57.94,-252.1 52.73,-510.8 120.1,-749 243.19,-860.1 343.65,-900.7 1248.94,-1025.1 244.16,-33.6 622.71,-123.9 859.8,-20 207.69,91.1 169.58,406.2 142.71,583.7 -81.78,540.4 -319.83,1035.4 -569.07,1516.2 -361.16,696.7 -679.67,1385.5 -953.33,2121.6 -149.23,401.5 -234.07,856.2 -439.2,1233.9 -231.07,425.4 -784.74,569 -993.65,1047.2 -169.42,387.7 -161.74,804 -280.99,1201.6 -26.2,87.3 -67.4,639.6 -192.43,643.4 -162.05,4.6 -10.36,-693.3 12.22,-945"
         style="fill:#fbc43e;fill-opacity:1;fill-rule:evenodd;stroke:none"
         id="path30" /><path
         d="m 5703.49,25931.8 c 149.93,-555.6 1145.96,-2024.7 1622.19,-3068.2 673.04,-1474.9 1044.64,-2762.6 1900.37,-4150.5 290.91,-471.7 542.87,-1436.7 1179.05,-1464.2 672.3,-29.1 1923.5,955.3 2652,1402.3 555.6,341 1599.1,904.2 2000.7,1442 460.9,617.2 -513.8,570.8 -979,1112.2 -276.7,322 22.1,807.9 -124.6,1208.7 -210.8,575.5 -1242.7,1622.7 -1853,1900 -512.3,232.9 -1077.1,21.9 -1524.7,440.3 -332.6,310.9 -484.8,580.3 -248,1321.9 151.5,474.5 -456.61,1387.3 -693.4,1642.8 -272.95,294.6 -425.42,-428.6 -1018.42,-712.7 -282.9,-135.6 -630.5,108.6 -971.61,17.9 -483.7,-128.3 -797.91,-469.6 -1219.05,-827.1 -184.62,-156.8 -789.4,-17.6 -722.53,-265.4"
         style="fill:#fcd66a;fill-opacity:1;fill-rule:evenodd;stroke:none"
         id="path32" /><path
         d="m 8706.47,22215.5 c -229.84,-1414.4 1303.03,-1330.5 1654.23,-625.3 524.3,1052.7 -1156.67,1757.4 -1654.23,625.3"
         style="fill:#fabc2d;fill-opacity:1;fill-rule:evenodd;stroke:none"
         id="path34" /><path
         d="m 8697.68,22136 c 0,0 548.71,763.3 1265.28,133.9 499.74,-438.7 218.14,-912.9 218.14,-912.9 0,0 193,147.1 256.7,413.6 46.5,194.2 71.4,520.5 -166.7,783 -570.16,628.2 -1280.18,184.9 -1453.38,-102.5 -103.03,-171 -120.04,-315.1 -120.04,-315.1"
         style="fill:#f8a116;fill-opacity:1;fill-rule:evenodd;stroke:none"
         id="path36" /><path
         d="m 13869,20171.2 c 0.7,-485.2 444.3,-393.2 513,-141.4 102.7,375.9 -422,542.8 -513,141.4"
         style="fill:#fabc2d;fill-opacity:1;fill-rule:evenodd;stroke:none"
         id="path38" /><path
         d="m 13918.9,20290.3 c 0,0 194.3,158.5 338.3,-11.1 140.1,-165.1 64.9,-358.6 64.9,-358.6 0,0 210.1,223.7 -21.8,418.5 -235.9,197.9 -381.4,-48.8 -381.4,-48.8"
         style="fill:#f8a116;fill-opacity:1;fill-rule:evenodd;stroke:none"
         id="path40" /><path
         d="m 9973.2,18372.3 c 198.6,-633.8 804,-289.5 801,74.4 -4.3,543 -832.61,496.2 -801,-74.4"
         style="fill:#fabc2d;fill-opacity:1;fill-rule:evenodd;stroke:none"
         id="path42" /><path
         d="m 9996.96,18553.2 c 0,0 217.04,305.3 494.74,156.3 270.3,-145 240.1,-435.9 240.1,-435.9 0,0 213.3,398.5 -202,535.9 -422.4,139.7 -532.84,-256.3 -532.84,-256.3"
         style="fill:#f8a116;fill-opacity:1;fill-rule:evenodd;stroke:none"
         id="path44" /><path
         d="m 11677.7,23092.6 c 188.1,-515.8 539.3,-305.1 501.9,-19.9 -55.7,425.8 -577.6,469.9 -501.9,19.9"
         style="fill:#fab21a;fill-opacity:1;fill-rule:evenodd;stroke:none"
         id="path46" /><path
         d="m 11675.2,23232 c 0,0 108.2,217.9 299.2,74.1 186,-139.9 195.1,-364.8 195.1,-364.8 0,0 96.8,291.4 -180.6,439.5 -282.1,150.6 -313.7,-148.8 -313.7,-148.8"
         style="fill:#f89c11;fill-opacity:1;fill-rule:evenodd;stroke:none"
         id="path48" /><path
         d="m 7090.57,25232.9 c 128.53,-352.5 368.58,-208.5 343.06,-13.5 -38.08,291 -394.8,321.2 -343.06,13.5"
         style="fill:#fabc2d;fill-opacity:1;fill-rule:evenodd;stroke:none"
         id="path50" /><path
         d="m 7088.85,25328.2 c 0,0 73.96,149 204.53,50.7 127.09,-95.6 133.33,-249.3 133.33,-249.3 0,0 66.14,199.1 -123.45,300.3 -192.82,102.9 -214.41,-101.7 -214.41,-101.7"
         style="fill:#f8a116;fill-opacity:1;fill-rule:evenodd;stroke:none"
         id="path52" /><path
         d="m 5662.41,24603.9 c -441.87,-645.5 39.05,-1610.8 814.49,-1671.3 138.73,531.3 125.29,1488.5 -814.49,1671.3"
         style="fill:#f8a116;fill-opacity:1;fill-rule:evenodd;stroke:none"
         id="path54" /><path
         d="m 5607.72,23566.9 c 0,0 -31.8,621.2 205.44,731.6 262.91,122.3 633.63,-322.6 633.63,-322.6 0,0 -116.5,284.9 -312.53,448.3 -127.23,106.2 -472.91,187.8 -472.91,187.8 -213.99,-353.3 -225.82,-701.6 -53.63,-1045.1"
         style="fill:#f59615;fill-opacity:1;fill-rule:evenodd;stroke:none"
         id="path56" /><path
         d="m 6954.64,18476.7 c -28.11,-84.6 -40.21,-187.7 -25.84,-262.5 46.64,-242.9 308.81,-390 504.72,-210.9 176.95,161.8 62.95,473.2 -122.28,576.8 -135.6,75.8 -298.4,71.4 -356.6,-103.4"
         style="fill:#f8a116;fill-opacity:1;fill-rule:evenodd;stroke:none"
         id="path58" /><path
         d="m 6923.89,18248 c 0,0 32.8,234 163.11,250.3 333.19,41.7 437.09,-320 437.09,-320 0,0 16.29,501.7 -401.99,458.2 -239.79,-24.9 -198.21,-388.5 -198.21,-388.5"
         style="fill:#f59615;fill-opacity:1;fill-rule:evenodd;stroke:none"
         id="path60" /><path
         d="m 5038.77,22124.4 c -5.92,-52 -0.37,-112.9 16.99,-154.3 56.37,-134.2 225.23,-187 316.31,-60.1 82.26,114.7 -21.23,280.2 -140.5,317.3 -87.3,27.2 -180.54,4.9 -192.8,-102.9"
         style="fill:#f8a116;fill-opacity:1;fill-rule:evenodd;stroke:none"
         id="path62" /><path
         d="m 5048.83,21989 c 0,0 -9.53,138.8 63.53,164 186.84,64.5 290.61,-131.2 290.61,-131.2 0,0 -51.56,290.9 -287.18,215 -135.08,-43.4 -66.96,-247.8 -66.96,-247.8"
         style="fill:#f59615;fill-opacity:1;fill-rule:evenodd;stroke:none"
         id="path64" /><path
         d="m 9074.79,25044.9 c -12.96,-29.5 -2.6,-72.5 15.76,-98.5 53.39,-75.8 208.7,-44.6 227.17,46.7 15.95,78.8 -75.1,150.3 -149.39,131 -39.1,-10.2 -80.58,-49.4 -93.54,-79.2"
         style="fill:#f9af14;fill-opacity:1;fill-rule:evenodd;stroke:none"
         id="path66" /><path
         d="m 9139.51,20075.5 c 5.85,-30.3 32.25,-65 55.62,-82.1 68.07,-49.8 148.67,28 117.41,114.7 -27.01,74.9 -116.1,108.7 -152.66,67.7 -19.2,-21.7 -26.3,-69.8 -20.37,-100.3"
         style="fill:#fab622;fill-opacity:1;fill-rule:evenodd;stroke:none"
         id="path68" /><path
         d="m 29986.2,21048.4 c 0,0 -112.7,-120.9 -85.6,-444.6 23.8,-282.8 208.7,-597.4 208.7,-597.4 0,0 -631.7,456.9 -606.2,633.3 68.3,473.2 483.1,408.7 483.1,408.7"
         style="fill:#f8a116;fill-opacity:1;fill-rule:evenodd;stroke:none"
         id="path70" /><path
         d="m 28676.7,23926.6 c 0,1.7 -236.3,164.9 -236.3,164.9 -212.5,13.6 -298.8,201.9 -406,287.6 l 230.6,-596.8 c 0,0 411.9,142.5 411.7,144.3"
         style="fill:#f8a116;fill-opacity:1;fill-rule:evenodd;stroke:none"
         id="path72" /><path
         d="m 21555.1,20448.5 c 74.6,39.5 136.3,69.8 187.6,116.7 0,0 137.4,-91.8 310.9,189 l -248,-452.5 -250.5,146.8"
         style="fill:#fab219;fill-opacity:1;fill-rule:evenodd;stroke:none"
         id="path74" /><path
         d="m 23100.6,24202.5 c 4.1,14.5 120.8,116.1 197.7,223 322,75.6 231,438.3 233.4,628.1 88.9,-263.2 223.2,-516.8 2.5,-758.2 15,-90.8 -443.7,-128.5 -433.6,-92.9"
         style="fill:#fab219;fill-opacity:1;fill-rule:evenodd;stroke:none"
         id="path76" /><path
         d="m 25626.8,28679.2 -79.8,-35.2 c -16,-88.9 -78.8,-135.7 -236.5,-133.7 0,0 120.9,-119.3 257.2,-25.4 49.4,33.9 98.9,134.8 59.1,194.3"
         style="fill:#f8a116;fill-opacity:1;fill-rule:evenodd;stroke:none"
         id="path78" /><path
         d="m 20375.6,17660.4 c 0,0 1582,-1897 4745.2,-1790.2 4615.2,155.5 6375.2,1587.5 6375.2,1587.5 l -2758.1,222.3 -8362.3,-19.6"
         style="fill:#f8a116;fill-opacity:1;fill-rule:evenodd;stroke:none"
         id="path80" /><path
         d="m 24737,28680.9 c 120.1,7.4 565.2,-25.5 565.2,-25.5 0,0 19,-186.9 167.8,-174.5 173.5,14.5 154.9,198 154.9,198 0,0 459.7,25.8 627.6,21.8 23.3,-0.6 880,-1852.8 1282.3,-2592.3 258.5,-475.3 741.8,-1441.6 741.8,-1441.6 0,0 -201.6,-202.2 -50.3,-514.4 155.8,-321.4 449.4,-224.5 449.4,-224.5 l 1311.2,-2880.7 c 0,0 -424.1,-140.7 -218.2,-639.2 189.7,-459.4 595.2,-266.2 595.2,-266.2 0,0 1144.7,-2671.1 1144.1,-2671.7 -529.1,-298.8 -2928.5,-251.8 -3094.1,-226.8 -322.2,48.1 -679.9,2046.8 -793.3,2420.4 -365.5,1203.4 -879.6,2356.9 -1257.9,3556.7 -589.7,1869.8 -684.8,3727.2 -1625.7,5460.5"
         style="fill:#fabc2d;fill-opacity:1;fill-rule:evenodd;stroke:none"
         id="path82" /><path
         d="m 20283.5,17698.1 c 34.2,113.3 54.1,160.9 84.6,248.7 51.7,149.2 486.2,1025 866.9,1822.2 115.3,241.3 319,680.3 319,680.3 0,0 268.2,-116.4 369.8,96.9 116.8,245.3 -161,385.5 -161,385.5 l 1338,3279.4 c 398,-24.1 635.4,425.4 279.4,706.9 0,0 262,672.9 358.7,934.6 307.2,831 964.1,2854.3 1006.2,2833.4 42.4,-21 1614,-3519.9 2060.4,-4713.1 644.9,-1723.7 1776.3,-6626.5 1765,-6649.2 -190.8,-378.4 -2282.4,-889 -2683.8,-937.2 -749.2,-89.5 -1537.6,-84.4 -2289.6,-13.9 -1201.8,112.5 -2363.9,605.8 -3313.6,1325.5"
         style="fill:#fbcc4d;fill-opacity:1;fill-rule:evenodd;stroke:none"
         id="path84" /><path
         d="m 24562.9,27450.2 c -11,-72.5 -87.3,-340 -109.1,-397.4 -61.3,-161 -124.5,-321.3 -186.9,-481.9 -186.1,-477.9 -395,-946.7 -571.3,-1428.4 -97,-265.3 357.3,-478.6 153.7,-961.2 -163.5,-387.4 -607.2,-269.1 -811.3,-564.9 -184.7,-267.6 -237.7,-662.1 -334.6,-967.5 -131.6,-414.9 -341.4,-811 -460.2,-1226.9 -108.1,-378.3 345.8,-680.4 176.1,-1062.9 -130.5,-294.1 -468.2,-313 -694.3,-496.8 -249.2,-202.7 -760,-1370.5 -731,-1695.4 43.1,-481.1 814.8,-612.7 1214.8,-807.5 507.7,-247.2 1087.7,-258.9 1639,-310.7 708.9,-66.5 1381.7,-199.7 2096.1,-106.5 294.6,38.4 1204.7,178 1498.5,233.7 352.7,66.8 587.4,417.8 598.6,623.7 30.1,553.8 -407.2,1456.3 -596.5,1982.7 -131.8,366.9 -493.8,596.5 -581.7,976.1 -119.3,515.3 144.5,1140.4 66.2,1720.8 -100.1,742.4 -546.1,1371.8 -754,2084.2 -116.7,399.2 -203.6,808.2 -396,1180.6 -202.2,391.6 -483.4,735 -678.8,1130.1 -59,119.4 -412,1402.5 -537.3,576.1"
         style="fill:#fcd66a;fill-opacity:1;fill-rule:evenodd;stroke:none"
         id="path86" /><path
         d="m 24402.2,25050.2 c 1.5,-1049.8 961.3,-850.7 1110.1,-305.9 222,813.1 -913.2,1174.3 -1110.1,305.9"
         style="fill:#fabc2d;fill-opacity:1;fill-rule:evenodd;stroke:none"
         id="path88" /><path
         d="m 24510.1,25307.9 c 0,0 420.5,342.9 732,-24.1 303.2,-357.2 140.4,-775.8 140.4,-775.8 0,0 454.6,484 -47.2,905.3 -510.2,428.4 -825.2,-105.4 -825.2,-105.4"
         style="fill:#f8a116;fill-opacity:1;fill-rule:evenodd;stroke:none"
         id="path90" /><path
         d="m 22673.4,21861.8 c 0.8,-568.3 520.4,-460.6 600.9,-165.6 120.2,440.2 -494.3,635.7 -600.9,165.6"
         style="fill:#fab621;fill-opacity:1;fill-rule:evenodd;stroke:none"
         id="path92" /><path
         d="m 22731.8,22001.3 c 0,0 227.6,185.6 396.3,-13.1 164.1,-193.4 76,-419.9 76,-419.9 0,0 246.1,262 -25.5,490.1 -276.3,231.9 -446.8,-57.1 -446.8,-57.1"
         style="fill:#f8a116;fill-opacity:1;fill-rule:evenodd;stroke:none"
         id="path94" /><path
         d="m 29523.6,18853.9 c 14.8,-566.4 441.1,-471.9 500.3,-180 88.3,435.7 -424,645.8 -500.3,180"
         style="fill:#f9a90e;fill-opacity:1;fill-rule:evenodd;stroke:none"
         id="path96" /><path
         d="m 29568.3,18991.4 c 0,0 167.6,83 314.3,-117.3 120.4,-164.4 -14.8,-413.3 -14.8,-413.3 0,0 372,168.7 92.6,556.9 -58.8,81.7 -142.6,102 -218.8,95.9 -116.9,-9.5 -173.3,-122.2 -173.3,-122.2"
         style="fill:#f59810;fill-opacity:1;fill-rule:evenodd;stroke:none"
         id="path98" /><path
         d="m 26572.9,26918.1 c 155.7,-492.8 412.8,-353.9 376.7,-91.2 -53.9,392.3 -446.3,508.2 -376.7,91.2"
         style="fill:#f9a90e;fill-opacity:1;fill-rule:evenodd;stroke:none"
         id="path100" /><path
         d="m 26567,27044.1 c 0,0 89.3,94.7 237.8,-61 121.8,-127.6 96.7,-363 96.7,-363 0,0 202.1,196.6 -82.4,498.8 -59.8,63.6 -120.4,70.2 -169.2,54.8 -74.7,-23.7 -82.9,-129.6 -82.9,-129.6"
         style="fill:#f59810;fill-opacity:1;fill-rule:evenodd;stroke:none"
         id="path102" /><path
         d="m 26763,24619.5 c 208.8,-661 553.8,-474.7 505.3,-122.2 -72.3,526.1 -598.6,681.5 -505.3,122.2"
         style="fill:#f9a90e;fill-opacity:1;fill-rule:evenodd;stroke:none"
         id="path104" /><path
         d="m 26755.2,24788.6 c 0,0 119.7,126.9 318.9,-81.8 163.4,-171.3 129.7,-486.9 129.7,-486.9 0,0 271.1,263.6 -110.5,669 -80.2,85.2 -161.6,94.2 -226.9,73.5 -100.2,-31.8 -111.2,-173.8 -111.2,-173.8"
         style="fill:#f59810;fill-opacity:1;fill-rule:evenodd;stroke:none"
         id="path106" /><path
         d="m 24788.2,18399.2 c -274.5,-393.9 52.9,-539.2 238.2,-369.1 276.6,253.9 45.8,649.5 -238.2,369.1"
         style="fill:#fabc2d;fill-opacity:1;fill-rule:evenodd;stroke:none"
         id="path108" /><path
         d="m 24886.7,18471.1 c 0,0 210.3,32.1 203.5,-176.8 -6.6,-203.4 -162.9,-323 -162.9,-323 0,0 257.1,77.2 223.6,350.2 -34.1,277.5 -264.2,149.6 -264.2,149.6"
         style="fill:#f8a116;fill-opacity:1;fill-rule:evenodd;stroke:none"
         id="path110" /><path
         d="m 27467.7,21792.1 c -549.8,-539.6 -268.7,-1563.8 469,-1769.9 235.2,487.1 404.3,1414.5 -469,1769.9"
         style="fill:#f9ae14;fill-opacity:1;fill-rule:evenodd;stroke:none"
         id="path112" /><path
         d="m 27217.5,20800.5 c 0,0 87.5,606.3 337.7,667.8 277.4,68.2 550.9,-432.2 550.9,-432.2 0,0 -58.3,297.5 -216.7,492.6 -102.7,126.8 -421.2,271.5 -421.2,271.5 -274,-300.7 -351.7,-635 -250.7,-999.7"
         style="fill:#f59615;fill-opacity:1;fill-rule:evenodd;stroke:none"
         id="path114" /><path
         d="m 22263.5,19258 c -79.3,-81.8 -150.6,-193.9 -175.6,-288.1 -81.1,-305.8 139.3,-621 464.6,-523.4 293.8,88.2 335.4,510.4 179.4,732.7 -114.1,162.7 -304.2,248.1 -468.4,78.8"
         style="fill:#fabc2d;fill-opacity:1;fill-rule:evenodd;stroke:none"
         id="path116" /><path
         d="m 22095.1,19005.4 c 0,0 167.8,251.5 327,197.9 407.2,-137 326.1,-611.6 326.1,-611.6 0,0 297.4,569.1 -208.9,751.4 -290.2,104.5 -444.2,-337.7 -444.2,-337.7"
         style="fill:#f59615;fill-opacity:1;fill-rule:evenodd;stroke:none"
         id="path118" /><path
         d="m 24227,21146.7 c -55.8,-57.6 -105.9,-136.4 -123.5,-202.7 -57.1,-215.2 98,-436.9 326.8,-368.3 206.7,62.1 235.9,359.1 126.2,515.5 -80.3,114.4 -214,174.5 -329.5,55.5"
         style="fill:#fabc2d;fill-opacity:1;fill-rule:evenodd;stroke:none"
         id="path120" /><path
         d="m 24108.5,20968.9 c 0,0 118,176.9 230.1,139.3 286.4,-96.4 229.3,-430.3 229.3,-430.3 0,0 209.2,400.4 -146.9,528.6 -204.1,73.5 -312.5,-237.6 -312.5,-237.6"
         style="fill:#f59615;fill-opacity:1;fill-rule:evenodd;stroke:none"
         id="path122" /><path
         d="m 25862.1,21620.3 c -7.6,-66.6 -0.5,-144.5 21.7,-197.4 72.2,-171.7 288.2,-239.4 404.7,-77 105.3,146.7 -27.1,358.5 -179.7,406 -111.7,34.8 -231,6.3 -246.7,-131.6"
         style="fill:#f8a116;fill-opacity:1;fill-rule:evenodd;stroke:none"
         id="path124" /><path
         d="m 25875,21447 c 0,0 -12.2,177.6 81.3,209.8 239,82.5 371.8,-167.8 371.8,-167.8 0,0 -66,372.2 -367.5,275.1 -172.8,-55.6 -85.6,-317.1 -85.6,-317.1"
         style="fill:#f59615;fill-opacity:1;fill-rule:evenodd;stroke:none"
         id="path126" /><path
         d="m 23846.2,23411.6 c -29.3,-27.8 -30.3,-41.3 -28.8,-96.5 2.4,-82.7 100.1,-91.9 140.6,-37.3 77.1,103.6 -27.9,276.1 -111.8,133.8"
         style="fill:#f8a116;fill-opacity:1;fill-rule:evenodd;stroke:none"
         id="path128" /><path
         d="m 25589.7,19885.1 c -36,-51.8 -32.4,-71.4 -9.1,-149 35.1,-115.9 193.9,-87.4 237.7,7.2 83.4,179.6 -149.1,378.9 -228.6,141.8"
         style="fill:#f8a116;fill-opacity:1;fill-rule:evenodd;stroke:none"
         id="path130" /><path
         d="m 35900.8,5211.7 230.5,353.9 334.7,-377.9 -392.2,-371.9 -173,395.9"
         style="fill:#f9b118;fill-opacity:1;fill-rule:evenodd;stroke:none"
         id="path132" /><path
         d="m 42146.5,4048.1 488,433 -997.4,1019.1 -1268.6,-592.7 c 1043.9,444.4 1544,14.5 1778,-859.4"
         style="fill:#ef8f12;fill-opacity:1;fill-rule:evenodd;stroke:none"
         id="path134" /><path
         d="m 40070.1,4057.7 337.4,304.7 -425.7,866.8 -640.9,-819.3 729.2,-352.2"
         style="fill:#f9b118;fill-opacity:1;fill-rule:evenodd;stroke:none"
         id="path136" /><path
         d="m 35738.2,6256.5 315.9,196 c 0,0 391.1,105.8 478.7,-15.2 87.8,-120.8 47.5,-710.1 47.5,-710.1 l -304.9,-288.4 c 52.6,354.9 -19.3,518.6 -145,657.3 -88.2,97.5 -219.7,173.6 -392.2,160.4"
         style="fill:#ef8f12;fill-opacity:1;fill-rule:evenodd;stroke:none"
         id="path138" /><path
         d="m 39098.1,13013.9 230.3,28 167.8,-280.9 -1048.3,-27.1 c 241.3,63.8 483.5,126.3 650.2,280"
         style="fill:#f9ab0f;fill-opacity:1;fill-rule:evenodd;stroke:none"
         id="path140" /><path
         d="m 41839.6,12982.3 159.3,40.3 168.7,-149.4 -470.7,-323 -350.3,100.3 c 198.2,12.8 438.2,66.6 493,331.8"
         style="fill:#f9ab0f;fill-opacity:1;fill-rule:evenodd;stroke:none"
         id="path142" /><path
         d="m 45278.8,10959.8 -138.7,-234.7 c 0,0 -676.3,-174.3 -234.3,-904.6 l -418,283.8 -87.6,721.8 c 299.3,62.3 605.1,143.6 878.6,133.7"
         style="fill:#f9ab0f;fill-opacity:1;fill-rule:evenodd;stroke:none"
         id="path144" /><path
         d="m 38983.8,9728.6 c 0,0 149,356.2 685.5,442.9 206.3,33.4 700.8,63 965.1,-644.9 192.7,-515.7 -34,-803.2 -34,-803.2 25.3,-8.5 172.5,153.1 250.2,380.4 53.1,155.7 59.3,359.8 41.6,503.9 -32.2,263 -92.9,530.9 -444.2,688.2 -146.9,65.6 -360.9,138.2 -595.9,115.1 -801.5,-78.2 -868.3,-682.4 -868.3,-682.4"
         style="fill:#f9b118;fill-opacity:1;fill-rule:evenodd;stroke:none"
         id="path146" /><path
         d="m 43038.5,11452.2 c 0,0 44.1,107 203.1,133 61.1,10.1 207.5,19 285.8,-193.8 57.1,-154.9 -10,-241.3 -10,-241.3 7.4,-2.5 85,60.1 108,128.5 15.8,46.7 21.3,106.7 16,149.9 -9.5,79.1 -38,191.5 -142.1,238.8 -43.5,19.7 -91.7,31.1 -161.3,24.2 -237.4,-23.5 -299.5,-239.3 -299.5,-239.3"
         style="fill:#f9b118;fill-opacity:1;fill-rule:evenodd;stroke:none"
         id="path148" /><path
         d="m 37357.8,11082.2 c 0,0 25.8,62.6 118.7,77.8 35.8,5.8 121.4,11.1 167.2,-113.3 33.3,-90.6 -5.9,-141.1 -5.9,-141.1 4.3,-1.5 49.7,35.1 63.1,75.1 9.2,27.3 12.5,62.4 9.4,87.6 -5.6,46.3 -22.2,112 -83.1,139.7 -25.4,11.5 -53.6,18.1 -94.3,14.1 -138.8,-13.7 -175.1,-139.9 -175.1,-139.9"
         style="fill:#f9b118;fill-opacity:1;fill-rule:evenodd;stroke:none"
         id="path150" /><path
         d="m 39390.1,11331.1 c 0,0 20.9,109.1 165.4,164.1 55.5,21.1 191.5,57.6 305.9,-127.4 83.4,-134.8 36.8,-228.9 36.8,-228.9 7.6,-0.9 68.5,72.9 77,141.5 5.9,47 -0.5,104.4 -13.7,144.1 -24.1,72.5 -72.5,172.8 -179.4,197.3 -44.7,10.2 -92.2,11.6 -156.4,-8.2 -218.7,-67.6 -235.6,-282.5 -235.6,-282.5"
         style="fill:#f9b118;fill-opacity:1;fill-rule:evenodd;stroke:none"
         id="path152" /><path
         d="m 40989.1,8894.8 c 0,0 38.8,94.1 178.5,117 53.8,8.8 182.5,16.6 251.4,-170.4 50.1,-136.2 -8.9,-212.1 -8.9,-212.1 6.6,-2.3 74.8,52.8 95,112.9 13.9,41.1 18.7,93.8 14.1,131.8 -8.4,69.5 -33.4,168.4 -125,210 -38.2,17.3 -80.6,27.3 -141.8,21.3 -208.7,-20.7 -263.3,-210.5 -263.3,-210.5"
         style="fill:#f9b118;fill-opacity:1;fill-rule:evenodd;stroke:none"
         id="path154" /><path
         d="m 42868.1,6893.5 c 0,0 154.6,220.1 483.9,192.8 126.6,-10.5 420.4,-70.2 439.8,-598.3 14.2,-384.8 -172.6,-545.2 -172.6,-545.2 13.1,-9.9 129.6,77 218.2,220.4 60.6,98.1 103,237.1 120.1,338.7 31.3,185.5 46.8,379 -128,543.7 -73.2,68.8 -184.1,153.1 -325.4,175.3 -482.1,76 -636,-327.4 -636,-327.4"
         style="fill:#f8a30d;fill-opacity:1;fill-rule:evenodd;stroke:none"
         id="path156" /><path
         d="m 38519.8,5717.8 c 0,0 -134.4,328 2.2,532.8 56.6,84.9 210.3,294.9 623,165 300.6,-94.5 344.7,-301.5 344.7,-301.5 13.2,8.6 -4.3,134.1 -76.8,250.9 -49.6,80 -138.1,155.5 -208.7,198.6 -129,78.7 -270.6,146 -470.4,39.7 -83.5,-44.5 -194.8,-117.5 -271.4,-234.3 -261.4,-398 57.4,-651.2 57.4,-651.2"
         style="fill:#f8a30d;fill-opacity:1;fill-rule:evenodd;stroke:none"
         id="path158" /><path
         d="m 41090.1,5110.8 c 422.4,20.3 858.3,-266.8 1054.2,-1060.4 l 3071.1,-95.5 217.3,306.1 c -825.1,36.8 -2958.2,74.3 -2958.2,74.3 -190.5,624.2 -857.8,892.4 -1384.4,775.5"
         style="fill:#f9b118;fill-opacity:1;fill-rule:nonzero;stroke:none"
         id="path160" /><path
         d="m 36014.8,6427.4 c 0,0 -262.9,3837.5 290.3,6688.3 l -1.9,1.9 -383.3,-391.3 C 35479,10133.7 35733.7,6254 35733.7,6254 c 327.9,44.2 593.9,-316.5 556.3,-631.3 281.6,204.9 146.9,889 -275.2,804.7"
         style="fill:#f9b118;fill-opacity:1;fill-rule:nonzero;stroke:none"
         id="path162" /><path
         d="m 36153.3,5349.5 c -62.4,-58.2 -147.2,-105.2 -258.1,-134.5 0,0 33.9,-899.4 106.9,-1296.1 l 4064,132.8 c 6,104.4 27.9,205.1 61.6,300.5 -728.8,-12.4 -2707.9,-48.7 -3813.3,-93.1 -51.9,296.5 -122.2,802.8 -161.1,1090.4"
         style="fill:#f9b118;fill-opacity:1;fill-rule:nonzero;stroke:none"
         id="path164" /><path
         d="m 40127.7,4352.2 c 176.2,3 280.2,4.6 280.2,4.6 43.7,428.1 331.9,676.1 682.2,754 -412.6,-19.9 -811.7,-333.4 -962.4,-758.6"
         style="fill:#fbcc4d;fill-opacity:1;fill-rule:nonzero;stroke:none"
         id="path166" /><path
         d="m 36290,5622.7 c -44.7,-32.5 -99.5,-53.4 -165.6,-56.9 0,0 11.2,-85.5 28.9,-216.3 82,76.5 124.7,172.5 136.7,273.2"
         style="fill:#fbcc4d;fill-opacity:1;fill-rule:nonzero;stroke:none"
         id="path168" /><path
         d="m 45276.1,9874.7 c 0,0 -652.8,-78.9 -640.4,567.7 9.8,511 644,515.4 644,515.4 0,0 106,1457.7 193.6,2207.3 -701.7,-98.1 -3473.3,-137.3 -3473.3,-137.3 0,0 -46.3,-390.7 -369.8,-393.2 -319.5,-2.2 -314.1,391.4 -314.1,391.4 l -1993.8,15.7 c -190.6,-409.3 -743.1,-309.2 -804,25.7 l -2203.9,97.7 c -3.3,-16.3 -6.1,-33 -9.3,-49.4 l 248,-239.1 c 388.9,5.7 882.8,57.8 1267.5,-53.6 454.5,-131.6 336.9,-793 1056.3,-709.1 710.6,82.8 426.3,873.7 1540.8,783.4 474.8,-38.6 396,-789.8 976.5,-735.4 394.8,37 578.8,395.8 922,505.3 476.1,152 1151.4,33 1638.1,-6.6 176.5,-14.2 654.9,47.7 788.9,-97.3 427.6,-463.3 -779.1,-1742.4 -436.2,-2531.8 108.1,-248.9 369.3,-393.6 445.7,-657.9 92.7,-320.6 32.8,-702.4 34.5,-1030.7 3.4,-670.2 22.3,-1344.2 111.2,-2009.2 24.8,-186.5 295,-1251 187.8,-1361.2 -47.8,-49.1 -142.9,-71.1 -254,-80.7 l 622.3,-600.2 -21.8,-30.6 c 13.5,-0.6 27.7,-1.2 40.6,-1.9 -166.7,1476.6 -197.2,5615.6 -197.2,5615.6"
         style="fill:#fbcc4d;fill-opacity:1;fill-rule:nonzero;stroke:none"
         id="path170" /><path
         d="m 44832.2,4891.8 c -206.8,-18 -469.7,7.5 -591.2,-14.4 -301.1,-54.3 -1119.8,-401.4 -1380.3,-283.5 -135,61 -203.7,444.6 -302.5,568.2 -329.1,411.4 -826.1,593.3 -1343.5,571.2 -541.3,-23 -1036.6,-253 -1429,-624.7 -113,-107.1 -193.8,-274.8 -330.4,-353.6 -211,-121.7 -2442,-179.5 -2630.4,-100.6 -678,284.8 234.8,660.8 379.3,867.9 104.9,150.3 89.3,344.9 44,513.1 -128.1,474.6 -668.3,540.8 -819.6,995 -93.4,280.1 -16.5,600.2 -23.9,888.6 -26.7,1046.7 -85.7,2051.5 7.2,3107 35.9,409 -25.5,1455.7 77.7,1849.5 20.4,0 42.4,0.8 63.5,1.1 l -248,239.1 c -553.2,-2850.8 -290.3,-6688.3 -290.3,-6688.3 422.1,84.3 556.8,-599.8 275.2,-804.7 -12,-100.7 -54.7,-196.7 -136.7,-273.2 38.9,-287.6 109.2,-793.9 161.1,-1090.4 1105.4,44.4 3084.5,80.7 3813.3,93.1 150.7,425.2 549.8,738.7 962.4,758.6 526.6,116.9 1193.9,-151.3 1384.4,-775.5 0,0 2133.1,-37.5 2958.2,-74.3 l 21.8,30.6 -622.3,600.2"
         style="fill:#fbcc4d;fill-opacity:1;fill-rule:nonzero;stroke:none"
         id="path172" /><path
         d="m 39623.1,11576.1 c 70.2,15.2 155.9,1.1 211.6,-30.2 59.8,-33.4 90.8,-132.5 104.8,-201.1 27.1,-132.8 -45.8,-263.5 -183.5,-323.2 -218.4,-94.7 -360.6,69.3 -368.7,234.3 -6.9,141.2 38.5,277.7 235.8,320.2 z m 1349.8,-2748.3 c 19.6,128.1 85.4,242.3 270.3,244.3 65.8,0.8 140.1,-27.6 184.4,-65.8 47.5,-41 57.2,-135.7 57.2,-199.8 0,-124.1 -89.3,-228.2 -223.9,-256.5 -213.3,-45 -311,128.2 -288,277.8 z M 43020,11376 c 22.3,145.6 97.2,275.5 307.5,277.8 74.9,0.9 159.4,-31.3 209.8,-74.9 54,-46.6 65.1,-154.3 65.1,-227.2 0,-141.2 -101.7,-259.5 -254.8,-291.8 -242.6,-51.1 -353.7,145.9 -327.6,316.1 z m -3060.7,-976.2 c 252.8,2.9 538.2,-104.4 708.4,-249.3 182.3,-155.1 219.6,-513.5 219.6,-756.3 0,-197.8 -60.3,-384.6 -168.5,-535.2 L 42839,6814.1 c 77.7,275.8 366.4,476.5 725.4,381.8 147.9,-38.9 293.9,-158.6 365.5,-285.5 76.8,-135.8 30.3,-387.6 -15.8,-554.1 -41,-147.7 -121.3,-275 -225.3,-361.8 l 1143.4,-1102.7 c 111.1,9.6 206.2,31.6 254,80.7 107.2,110.2 -163,1174.7 -187.8,1361.2 -88.9,665 -107.8,1339 -111.2,2009.2 -1.7,328.3 58.2,710.1 -34.5,1030.7 -76.4,264.3 -337.6,409 -445.7,657.9 -342.9,789.4 863.8,2068.5 436.2,2531.8 -134,145 -612.4,83.1 -788.9,97.3 -486.7,39.6 -1162,158.6 -1638.1,6.6 -343.2,-109.5 -527.2,-468.3 -922,-505.3 -580.5,-54.4 -501.7,696.8 -976.5,735.4 -1114.5,90.3 -830.2,-700.6 -1540.8,-783.4 -719.4,-83.9 -601.8,577.5 -1056.3,709.1 -384.7,111.4 -878.6,59.3 -1267.5,53.6 l 2761.4,-2663.3 c 164.1,112.2 382.1,183.7 644.8,186.5"
         style="fill:#fcd66a;fill-opacity:1;fill-rule:nonzero;stroke:none"
         id="path174" /><path
         d="m 37105.7,8227.2 c 85,44.3 201.5,53.6 286.1,29.4 90.5,-25.8 169.6,-151.3 214.7,-240.6 87.3,-172.7 49.4,-381.3 -127.9,-470.8 -177.4,-89.6 -391,17.5 -516.5,157.8 -132,147.4 -95.4,400.1 143.6,524.2 z m 241.3,2810.4 c 13.1,85.2 56.8,161.2 179.7,162.5 43.8,0.5 93.2,-18.3 122.7,-43.8 31.6,-27.2 38.1,-90.2 38.1,-132.9 0,-82.5 -59.5,-151.7 -149,-170.5 -141.8,-29.9 -206.8,85.3 -191.5,184.7 z m 1160,-4623 c 92.1,117.8 245.3,211.4 372.7,238.5 136.3,29 309.6,-81.4 417.6,-167.8 209.1,-167.2 267.3,-468.9 73.8,-710.9 -193.6,-242 -416.3,-304.2 -660.2,-206.7 -256.5,102.6 -462.8,516.3 -203.9,846.9 z M 36411.9,11026 c -92.9,-1055.5 -33.9,-2060.3 -7.2,-3107 7.4,-288.4 -69.5,-608.5 23.9,-888.6 151.3,-454.2 691.5,-520.4 819.6,-995 45.3,-168.2 60.9,-362.8 -44,-513.1 -144.5,-207.1 -1057.3,-583.1 -379.3,-867.9 188.4,-78.9 2419.4,-21.1 2630.4,100.6 136.6,78.8 217.4,246.5 330.4,353.6 392.4,371.7 887.7,601.7 1429,624.7 517.4,22.1 1014.4,-159.8 1343.5,-571.2 98.8,-123.6 167.5,-507.2 302.5,-568.2 260.5,-117.9 1079.2,229.2 1380.3,283.5 121.5,21.9 384.4,-3.6 591.2,14.4 l -1143.4,1102.7 c -122.7,-102.5 -278.6,-148.5 -443.9,-102.6 -305.5,84.7 -435.7,464.7 -426.8,788.2 1.3,46 8.7,90.8 20.9,134 L 40718.8,8859 c -148.9,-207.1 -388.9,-345.2 -692.2,-345.2 -524,0 -899.5,465.7 -1028.2,907 -85.3,292.3 36.8,601.6 316.1,792.5 l -2761.4,2663.3 c -21.1,-0.3 -43.1,-1.1 -63.5,-1.1 -103.2,-393.8 -41.8,-1440.5 -77.7,-1849.5"
         style="fill:#fcd66a;fill-opacity:1;fill-rule:nonzero;stroke:none"
         id="path176" /><path
         d="m 36900,7813.7 c 0,0 -15.7,156.4 149.9,280 63.6,47.5 225.5,142.9 446.4,-72.2 161,-156.7 137.6,-301.2 137.6,-301.2 10.1,1.2 30,85.8 14.1,182.7 -10.9,66.3 -46.7,142.4 -79.4,192.4 -59.8,91.2 -130.1,179.3 -278.2,177.1 -61.9,-1 -147.8,-10.8 -223.1,-59.5 -256.9,-165.7 -167.3,-399.3 -167.3,-399.3"
         style="fill:#f8a30d;fill-opacity:1;fill-rule:evenodd;stroke:none"
         id="path178" /><path
         d="m 36008.8,3920.9 309.8,346.8 1892.6,44.3 c -347.5,-84.7 -1349.1,-8.9 -1377.3,-366.3 l -825.1,-24.8"
         style="fill:#f8a30d;fill-opacity:1;fill-rule:evenodd;stroke:none"
         id="path180" /><path
         d="m 42143.7,4048 331.2,296.7 1892.6,-48 c -352.1,-62.8 -1334.7,81.9 -1385.4,-272.9 l -838.4,24.2"
         style="fill:#f8a30d;fill-opacity:1;fill-rule:evenodd;stroke:none"
         id="path182" /><path
         d="m 4592.97,11331.9 1846.01,1033.2 c 0,0 353.73,-40.9 530.3,72.8 168.9,109.3 44.59,223.3 44.59,223.3 l 568.39,311.9 5359.44,-405.9 c 0,0 54.6,-311.6 365.2,-310.5 392.1,1.4 550.4,241.3 550.4,241.3 l 1841.3,-80.7 -3019.1,-1870.7 c -2789.43,36.5 -5474.89,322.7 -8086.53,785.3"
         style="fill:#fcd66a;fill-opacity:1;fill-rule:evenodd;stroke:none"
         id="path184" /><path
         d="M 12593.2,10662.7 15698,12419 c -32.5,-680.6 -77.4,-1364.8 -104.5,-2052.5 -8.9,-217.9 -287,-257.1 -220.6,-716.1 32.2,-224.4 296.2,-274.4 299.4,-497.4 17.7,-1232.7 -127.3,-2598.4 -7.7,-3782.3 L 12685.4,3263 c -475.1,2435.8 -564,4948.6 -92.2,7399.7"
         style="fill:#fabc2d;fill-opacity:1;fill-rule:evenodd;stroke:none"
         id="path186" /><path
         d="m 4756.82,10204.1 c 0,0 159.57,-107.4 206.11,-240.8 97.15,-278.4 -13.96,-606.9 -13.96,-606.9 0,0 401.33,449.1 358.46,638.7 -42.86,189.8 -615.68,499.5 -615.68,499.5 l 12.06,-138.3 53.01,-152.2"
         style="fill:#fabc2d;fill-opacity:1;fill-rule:evenodd;stroke:none"
         id="path188" /><path
         d="m 4689.47,6472.8 195.26,425.9 c 0,0 156.92,40.1 221.33,250 149.67,487.8 -249.35,863.2 -249.35,863.2 0,0 852.37,-591.1 786.42,-1239.2 -25.14,-247.1 -953.66,-299.9 -953.66,-299.9"
         style="fill:#fabc2d;fill-opacity:1;fill-rule:evenodd;stroke:none"
         id="path190" /><path
         d="m 12645.2,10686.9 c -2707.29,15.8 -5370.32,275.5 -8056.07,647.3 l 116.33,-976.1 c 502.85,-206.7 484.54,-950.2 9.45,-1120.1 l -3.24,-1178.2 c 794.56,-307.5 672.61,-1447.6 -23.63,-1580 L 4526.53,3888.2 c 2687.53,-35.3 5415.21,-282 8161.77,-625.5 -387.7,2214.7 -319.5,4746.8 -43.1,7424.2"
         style="fill:#fbcc4d;fill-opacity:1;fill-rule:evenodd;stroke:none"
         id="path192" /><path
         d="m 8678.15,10866.4 c -334.93,695.5 -1428.85,812.3 -1889.7,191.3 394,-383.6 1235.09,-889 1889.7,-191.3"
         style="fill:#fabc2d;fill-opacity:1;fill-rule:evenodd;stroke:none"
         id="path194" /><path
         d="m 7778.22,11454.6 c 0,0 587.09,-271 559.38,-525.7 -30.7,-282.4 -625.18,-388.1 -625.18,-388.1 0,0 242.73,-68.4 562.63,47.1 158.56,57.4 427.55,276.5 427.55,276.5 -197.97,357.3 -531.8,562.2 -924.38,590.2"
         style="fill:#f9ac0f;fill-opacity:1;fill-rule:evenodd;stroke:none"
         id="path196" /><path
         d="m 8772.78,8878.6 c -194.29,6.3 -323.61,-403.6 -325.39,-528.1 -4.13,-329.1 325.68,-514.6 642.5,-471.7 415.44,56.2 937.81,633.7 491.93,976.4 -237.7,182.6 -514.95,243.6 -809.04,23.4"
         style="fill:#fabc2d;fill-opacity:1;fill-rule:evenodd;stroke:none"
         id="path198" /><path
         d="m 8786.95,8877.5 c -0.59,5.9 73.52,14.4 77.95,15.3 66.73,14.3 135.83,17.2 202.55,0.8 169.78,-41.8 329.53,-186 388.58,-342.1 45.46,-120 66.14,-284.3 22.73,-408.8 -15.94,-45.7 -42.51,-86.1 -74.41,-123 -10.33,-12.2 -20.66,-24 -32.47,-34.8 -5.62,-5.3 -23.04,-19.7 -17.13,-15.2 189.86,138.6 389.75,293.9 400.68,552.7 13.29,307.4 -324.8,538 -626.56,510.9 -142.9,-12.7 -237.1,-70.8 -341.92,-155.8"
         style="fill:#f9ac0f;fill-opacity:1;fill-rule:evenodd;stroke:none"
         id="path200" /><path
         d="M 5598.11,6129.4 C 5310.76,4438.9 7227.15,4539.2 7666.23,5382.1 8321.69,6640.3 6220.15,7482.4 5598.11,6129.4"
         style="fill:#fabc2d;fill-opacity:1;fill-rule:evenodd;stroke:none"
         id="path202" /><path
         d="m 5587.11,6034.4 c 0,0 685.99,912.2 1581.84,160.1 624.77,-524.4 272.73,-1091.1 272.73,-1091.1 0,0 241.26,175.7 320.92,494.2 58.07,232.2 89.2,622.2 -208.44,935.9 -712.77,750.8 -1600.44,220.9 -1816.97,-122.5 -128.81,-204.3 -150.08,-376.6 -150.08,-376.6"
         style="fill:#f8a116;fill-opacity:1;fill-rule:evenodd;stroke:none"
         id="path204" /><path
         d="m 8844.29,4379 c 184.98,-590.3 748.73,-269.6 745.99,69.2 -4.06,505.8 -775.43,462.2 -745.99,-69.2"
         style="fill:#fabc2d;fill-opacity:1;fill-rule:evenodd;stroke:none"
         id="path206" /><path
         d="m 8866.43,4547.5 c 0,0 202.13,284.2 460.75,145.5 251.73,-135.1 223.56,-405.9 223.56,-405.9 0,0 198.67,371.1 -188.11,499.1 -393.37,130 -496.2,-238.7 -496.2,-238.7"
         style="fill:#f8a116;fill-opacity:1;fill-rule:evenodd;stroke:none"
         id="path208" /><path
         d="m 11424.7,9596.4 c 124.2,-396.3 502.7,-181 500.8,46.5 -2.7,339.6 -520.6,310.3 -500.8,-46.5"
         style="fill:#fabc2d;fill-opacity:1;fill-rule:evenodd;stroke:none"
         id="path210" /><path
         d="m 11439.5,9709.5 c 0,0 135.7,190.9 309.4,97.8 169,-90.7 150.1,-272.6 150.1,-272.6 0,0 133.4,249.2 -126.3,335.1 -264.1,87.3 -333.2,-160.3 -333.2,-160.3"
         style="fill:#f8a116;fill-opacity:1;fill-rule:evenodd;stroke:none"
         id="path212" /><path
         d="m 5696.15,9404.7 c -31.64,-566.2 387.54,-509.3 468.3,-223.3 120.57,426.8 -356.85,681.3 -468.3,223.3"
         style="fill:#fab21a;fill-opacity:1;fill-rule:evenodd;stroke:none"
         id="path214" /><path
         d="m 5750.53,9538 c 0,0 191.48,162.8 314.25,-51.5 119.48,-208.5 36.56,-425.7 36.56,-425.7 0,0 210.5,237.1 7.55,490.7 -206.43,257.8 -358.36,-13.5 -358.36,-13.5"
         style="fill:#f89c11;fill-opacity:1;fill-rule:evenodd;stroke:none"
         id="path216" /><path
         d="m 10899.3,11369.6 c 564.6,-7.2 519.5,226.3 236.1,266.2 -422.9,59.6 -690.4,-212.3 -236.1,-266.2"
         style="fill:#fab21a;fill-opacity:1;fill-rule:evenodd;stroke:none"
         id="path218" /><path
         d="m 10767.6,11397.6 c 0,0 -107,77 109.9,151.4 188.1,64.4 376.6,53.7 376.6,53.7 0,0 -230.9,113.4 -489.9,-4.9 -263.3,-120.2 3.4,-200.2 3.4,-200.2"
         style="fill:#f89c11;fill-opacity:1;fill-rule:evenodd;stroke:none"
         id="path220" /><path
         d="m 9307.04,11934.8 c 960.36,-12.3 883.66,385 401.72,452.8 -719.38,101.4 -1174.46,-361.1 -401.72,-452.8"
         style="fill:#fabc2d;fill-opacity:1;fill-rule:evenodd;stroke:none"
         id="path222" /><path
         d="m 9083.15,11982.4 c 0,0 -105.12,102.6 269.44,211.3 284.51,82.6 694.01,-65 694.01,-65 0,0 48.7,52.5 -42.9,147.9 -40.14,41.8 -110.02,77.4 -224.9,102.9 -133.29,29.6 -328.77,41.9 -634.55,-23.2 -169.27,-36 -241.39,-155.8 -243.36,-202.1 -5.3,-122.4 182.26,-171.8 182.26,-171.8"
         style="fill:#f9ac0f;fill-opacity:1;fill-rule:evenodd;stroke:none"
         id="path224" /><path
         d="m 10743.9,7544.8 c -15.7,-35.9 -3.2,-88.1 19.1,-119.7 64.9,-92.1 253.5,-54.2 275.9,56.7 19.4,95.7 -91.2,182.5 -181.4,159.1 -47.5,-12.3 -97.9,-60 -113.6,-96.1"
         style="fill:#f9af14;fill-opacity:1;fill-rule:evenodd;stroke:none"
         id="path226" /><path
         d="m 12425.8,6134.8 c 0,0 536,-250.6 518.1,-735.9 -13.3,-362.6 -449.6,-556.8 -449.6,-556.8 0,0 -548.2,197.9 -555.4,571.6 -8.5,442.7 486.9,721.1 486.9,721.1"
         style="fill:#f8a116;fill-opacity:1;fill-rule:evenodd;stroke:none"
         id="path228" /><path
         d="m 11935.9,5442.4 c 0,0 257.4,461.4 522.6,444.5 293.8,-18.8 485.2,-460 485.2,-460 -18.1,322.7 -205.4,549.7 -511.8,710.2 -315.5,-187.5 -468.9,-422.6 -496,-694.7"
         style="fill:#f68c11;fill-opacity:1;fill-rule:evenodd;stroke:none"
         id="path230" /><path
         d="m 12981,10236.3 c 122.5,357.4 801.2,377.6 1015.3,503.3 144.1,84.6 290.3,166.1 436.4,247.2 1283.5,714 423.6,-801.7 439.6,-1547.9 12,-562 267.9,-1090.1 284.4,-1653 22.7,-776.4 -321.7,-1569.8 -612.5,-2274.4 -178.7,-432.8 -470,-893 -929.5,-1064.6 -143.1,-53.5 -420.7,-134.8 -538.6,13.4 -116.9,147.1 91.1,461.9 147.8,597.1 146.8,350.3 190,726.7 94.8,1097.2 -118.5,461.3 -417.2,817.9 -443.8,1313.4 -41.1,767.5 -80.8,2223 106.1,2768.3"
         style="fill:#fbc43e;fill-opacity:1;fill-rule:evenodd;stroke:none"
         id="path232" /><path
         d="m 37073.4,17198.2 c 0,0 389.8,-319.8 1505,-488.1 1783.5,-269.3 4782,-261.4 6352.9,861.6 751.4,537.8 676.2,2117.8 588.3,3197.8 -135.6,1664.3 -1402.2,6788.6 -1402.2,6788.6 l -7044,-10359.9"
         style="fill:#fabc2d;fill-opacity:1;fill-rule:evenodd;stroke:none"
         id="path234" /><path
         d="m 37011.7,28002.9 c -21.5,-633.7 17.6,-1728.4 -433.6,-3731.7 -433.8,-1925.3 -2726.6,-6281.4 702.4,-7286.6 670.8,-196.6 2030.3,-518 3116.8,-82 2929.3,1175.1 3051.8,4743.6 3504.9,7571.1 63.3,395 413.3,2852.1 164.7,3183.1 -32.2,43.3 -1792.8,133.2 -1792.8,133.2 0,0 -101.1,-276.4 -565.7,-288 -448.3,-11.1 -593.5,311.1 -593.5,311.1 l -1670.9,45.4 c 0,0 89.3,-595.9 -649.5,-573.6 -647.9,19.8 -597.5,586.7 -597.5,586.7 0,0 -896.2,72.4 -1185.3,131.3"
         style="fill:#fbcc4d;fill-opacity:1;fill-rule:evenodd;stroke:none"
         id="path236" /><path
         d="m 37321.4,27058 c 113.5,-761.1 -480.4,-3544.2 -593.1,-3961.1 -427.6,-1581.5 -1274.3,-3265.6 -169.9,-4609.8 782.7,-952.6 1845.6,-1141 2208.7,-1170.2 479.4,-38.8 1288.6,111.1 1757.4,289.5 834.8,317 1327.5,1310.7 1631.8,2125.8 582,1559.8 810.2,2950.6 1137.5,4576.1 128.6,637.5 516.5,2853 280.8,2975.4 -334.9,173.7 -1395.6,-99.8 -1751.3,-144.9 -862.1,-109.2 -1097.5,326 -1097.5,326 0,0 -1126.1,69.9 -1142.4,-52.1 -78.8,-587.4 -502.2,-534.6 -806.8,-507.4 -687,61.8 -544,505.8 -730.9,571.1 -454.9,158.9 -812.8,175.6 -724.3,-418.4"
         style="fill:#fcd66a;fill-opacity:1;fill-rule:evenodd;stroke:none"
         id="path238" /><path
         d="m 38019,26119.3 c -85.9,-44.1 -202.9,-159.5 -225.6,-181.8 -111.6,-110.9 -173.3,-268.5 -168.6,-425.2 19.6,-659.9 857.7,-758.2 1233.1,-321.4 269,312.7 251.4,879.5 -190.1,1024.3 -271.1,89.1 -464.9,-1.2 -648.8,-95.9"
         style="fill:#fabc2d;fill-opacity:1;fill-rule:evenodd;stroke:none"
         id="path240" /><path
         d="m 37726.1,25855.2 c 0,0 474.5,384.3 751.8,217.6 621.5,-372.7 182.9,-1035.1 182.9,-1035.1 0,0 520.2,271.3 341.9,876 -59.1,200.5 -257.3,405.3 -691.5,319.8 -345.8,-67.6 -585.1,-378.3 -585.1,-378.3"
         style="fill:#f8a116;fill-opacity:1;fill-rule:evenodd;stroke:none"
         id="path242" /><path
         d="m 40085,22160.9 c 713.8,-1229.6 1815.2,-225.1 1637.4,533.1 -265.4,1131.8 -1972.6,643.3 -1637.4,-533.1"
         style="fill:#fabc2d;fill-opacity:1;fill-rule:evenodd;stroke:none"
         id="path244" /><path
         d="m 40049.3,22549.8 c 0,0 309.1,739.7 959.2,559.7 632.8,-175.3 706.9,-796.7 706.9,-796.7 0,0 257.4,932.6 -674.6,1023.5 -947.8,92.3 -991.5,-786.5 -991.5,-786.5"
         style="fill:#f8a116;fill-opacity:1;fill-rule:evenodd;stroke:none"
         id="path246" /><path
         d="m 36843.8,20487.6 c 287,-494.3 729.8,-90.4 658.3,214.4 -106.7,455.1 -793.1,258.7 -658.3,-214.4"
         style="fill:#fabc2d;fill-opacity:1;fill-rule:evenodd;stroke:none"
         id="path248" /><path
         d="m 36829.4,20644 c 0,0 124.3,297.4 385.7,225.1 254.4,-70.5 284.2,-320.4 284.2,-320.4 0,0 103.5,375 -271.2,411.5 -381.1,37.1 -398.7,-316.2 -398.7,-316.2"
         style="fill:#f8a116;fill-opacity:1;fill-rule:evenodd;stroke:none"
         id="path250" /><path
         d="m 41390,24567 c 192.3,-331.4 489.1,-60.7 441.2,143.6 -71.5,305 -531.6,173.4 -441.2,-143.6"
         style="fill:#fabc2d;fill-opacity:1;fill-rule:evenodd;stroke:none"
         id="path252" /><path
         d="m 41380.3,24671.8 c 0,0 104.1,158.5 271.6,87.8 164.7,-69.5 141.4,-227.3 141.4,-227.3 0,0 178,277.5 -118.1,367.7 -110.4,33.6 -204.3,-33.4 -248.1,-94.7 -44.4,-62.3 -46.8,-133.5 -46.8,-133.5"
         style="fill:#f8a116;fill-opacity:1;fill-rule:evenodd;stroke:none"
         id="path254" /><path
         d="m 37757.3,21444.7 c 136,-234.3 345.9,-42.9 312,101.5 -50.6,215.7 -375.9,122.6 -312,-101.5"
         style="fill:#fabc2d;fill-opacity:1;fill-rule:evenodd;stroke:none"
         id="path256" /><path
         d="m 37750.5,21518.8 c 0,0 73.6,112.1 192,62.1 116.5,-49.2 100,-160.8 100,-160.8 0,0 125.9,196.2 -83.5,260 -78.1,23.8 -144.4,-23.6 -175.4,-66.9 -31.4,-44.1 -33.1,-94.4 -33.1,-94.4"
         style="fill:#f8a116;fill-opacity:1;fill-rule:evenodd;stroke:none"
         id="path258" /><path
         d="m 41836.3,21559.6 c 136,-234.3 345.8,-42.9 312,101.6 -50.6,215.7 -375.9,122.6 -312,-101.6"
         style="fill:#fabc2d;fill-opacity:1;fill-rule:evenodd;stroke:none"
         id="path260" /><path
         d="m 41829.5,21633.7 c 0,0 73.5,112.1 191.9,62.1 116.5,-49.1 100,-160.7 100,-160.7 0,0 125.9,196.2 -83.4,260 -78.1,23.7 -144.5,-23.6 -175.4,-67 -31.5,-44 -33.1,-94.4 -33.1,-94.4"
         style="fill:#f8a116;fill-opacity:1;fill-rule:evenodd;stroke:none"
         id="path262" /><path
         d="m 37045.2,18685.2 c -108,-200.5 291.7,-277.7 406.8,-191.6 171.8,128.5 -239.2,333.7 -406.8,191.6"
         style="fill:#fabc2d;fill-opacity:1;fill-rule:evenodd;stroke:none"
         id="path264" /><path
         d="m 37114.5,18721.4 c 0,0 186.2,-8.1 249.9,-118 62.7,-108.1 -67.6,-142.6 -67.6,-142.6 0,0 323.1,-12.1 185.3,171.8 -51.4,68.6 -164.4,98.6 -238.8,103.6 -75.6,5.1 -128.8,-14.8 -128.8,-14.8"
         style="fill:#f8a116;fill-opacity:1;fill-rule:evenodd;stroke:none"
         id="path266" /><path
         d="m 41734.5,26741.9 c -140.3,-260.6 379.3,-361 528.9,-249.1 223.3,167.1 -311,433.8 -528.9,249.1"
         style="fill:#fabc2d;fill-opacity:1;fill-rule:evenodd;stroke:none"
         id="path268" /><path
         d="m 41824.6,26789 c 0,0 242.1,-10.6 324.9,-153.5 81.5,-140.5 -87.9,-185.3 -87.9,-185.3 0,0 420.1,-15.8 240.9,223.4 -66.9,89.2 -213.7,128.1 -310.4,134.6 -98.3,6.7 -167.5,-19.2 -167.5,-19.2"
         style="fill:#f8a116;fill-opacity:1;fill-rule:evenodd;stroke:none"
         id="path270" /><path
         d="m 39776.2,19273.7 c -179.5,-739.7 385.1,-766.5 560.9,-408.7 262.4,534.1 -302.8,986.1 -560.9,408.7"
         style="fill:#fabc2d;fill-opacity:1;fill-rule:evenodd;stroke:none"
         id="path272" /><path
         d="m 39880.1,19436.4 c 0,0 291.3,168.3 400.4,-144.4 106.1,-304.4 -55.8,-570.8 -55.8,-570.8 0,0 334.4,261.7 129.6,645.8 -208.4,390.6 -474.2,69.4 -474.2,69.4"
         style="fill:#f8a116;fill-opacity:1;fill-rule:evenodd;stroke:none"
         id="path274" /><path
         d="m 44255.8,26320.7 c -101.2,406.9 -11.8,-2643.3 -307.6,-4570.2 -191.7,-1247.4 -394.1,-2057.3 -842.8,-3022 -270.1,-579.9 -1196.9,-1427.6 -1422.1,-1580.8 -92.2,-62.8 -339.4,-202.1 -174.6,-274.5 183.6,-80.7 990.9,49 1172,87.2 829.8,175.8 1837.8,512.7 2235.6,968.2 266.8,305.9 536.9,1489.3 408.7,2753.5 -50.5,498.8 -175,1172.2 -307.5,1960.6 -117.1,695 -749.9,3629.9 -761.7,3678"
         style="fill:#fbc33d;fill-opacity:1;fill-rule:evenodd;stroke:none"
         id="path276" /><path
         d="m 41031.1,17063.3 c -216.8,-158.9 -142.5,-275.2 55.1,-261.5 36.9,2.2 71.5,12.5 103.3,26.7 35.8,16.4 65.9,39.9 90.8,66.1 212.9,222.9 -66.9,302.3 -249.2,168.7"
         style="fill:#fbc33d;fill-opacity:1;fill-rule:evenodd;stroke:none"
         id="path278" /><path
         d="m 43085.5,19406.5 c -184.5,-202.7 -172.5,-381.4 -43.8,-387.1 24,-1.6 48.9,8.7 73.2,25.2 27.5,19.2 53.5,49.5 77.1,84.3 201.1,296.1 48.5,448 -106.5,277.6"
         style="fill:#fbc33d;fill-opacity:1;fill-rule:evenodd;stroke:none"
         id="path280" /><path
         d="m 42990.5,18609.5 c 56.4,99 -46.6,160.1 -159.3,158.1 -189.8,-3.8 -322,-174.1 -222.2,-324.7 55.9,-83.6 168.6,-88.4 262.9,-56 128.8,44.1 139.7,101.8 118.6,222.6"
         style="fill:#fbc33d;fill-opacity:1;fill-rule:evenodd;stroke:none"
         id="path282" /><path
         d="m 41341.5,16577.1 c 24.1,-5.5 1819.7,330.3 2984.9,855.6 346.4,156.2 627.8,389.2 802.8,655.2 87,131.9 231.4,624 285.8,1170.8 88.8,892.7 60.4,1948.4 60.4,1948.4 0,0 320.6,-2628.2 -236.2,-3351.1 -491.3,-638.1 -1256.5,-768.8 -1906.3,-981.9 -637.6,-209.3 -2015.3,-291.5 -1991.4,-297"
         style="fill:#f8a116;fill-opacity:1;fill-rule:evenodd;stroke:none"
         id="path284" /><path
         d="m 38470.9,16735.2 c 0,0 1206.8,-104.6 2080.6,264.5 990.3,418.2 2163.7,2132 2163.7,2132 0,0 -712.6,-1681 -2172.6,-2316.9 -786.4,-342.4 -2071.7,-79.6 -2071.7,-79.6"
         style="fill:#fcd66a;fill-opacity:1;fill-rule:evenodd;stroke:none"
         id="path286" /><path
         d="m 20553.3,4852 c 0,0 162.6,97.5 345.8,4.8 115.8,-58.5 167.7,-262 167.7,-262 l 276.1,229.6 c 0,0 -255.8,503.2 -387.4,507.9 -131.6,4.6 -402.2,-480.3 -402.2,-480.3"
         style="fill:#fab31b;fill-opacity:1;fill-rule:evenodd;stroke:none"
         id="path288" /><path
         d="m 18425.8,5940.5 c 0,0 265.7,149.5 464.1,49.5 230.2,-115.9 219.3,-420 219.3,-420 l 330.2,207.5 -302,621.9 c -378.9,-45 -599.3,-210.6 -711.6,-458.9"
         style="fill:#fab31b;fill-opacity:1;fill-rule:evenodd;stroke:none"
         id="path290" /><path
         d="m 17685.4,6316.8 741.9,-375.2 c 0,0 378.3,359.9 683.4,153.5 266.7,-181 0,-528 0,-528 0,0 450.5,-99.1 656.5,-201.7 240.4,-119.4 785.1,-515 785.1,-515 0,0 254.1,271.4 426.5,130 224.8,-184.5 88,-385.8 88,-385.8 525.5,-170.4 1027.4,-416.8 1503.4,-747.7 2970.1,2349.2 5650.3,4906.1 8179.2,7571.1 l -6513.1,970.9 c 0,0 -2011.2,-2177.3 -3092.2,-3179.2 C 20052.3,8197.6 17685.4,6316.8 17685.4,6316.8"
         style="fill:#fbcc4d;fill-opacity:1;fill-rule:evenodd;stroke:none"
         id="path292" /><path
         d="m 22564.6,3846.9 2511.5,383 c 0,0 78.8,146.9 285.9,207.2 356.2,103.4 565.1,-77.1 565.1,-77.1 l 5108.9,779 c 0,0 813.6,914.2 726.4,3597.9 -51.1,1560.9 -1020.8,2681.8 -1020.8,2681.8 -1126.9,-1158.5 -4075.5,-3968.8 -4075.5,-3968.8 -461.6,21.5 -621,-141.8 -502.3,-475.1 0,0 -2383.6,-2125.6 -3599.2,-3127.9"
         style="fill:#fabc2d;fill-opacity:1;fill-rule:evenodd;stroke:none"
         id="path294" /><path
         d="m 23362.1,4234.2 c 0.7,-8 305,84.1 311,85.4 134.8,27 271,51.3 407.7,66.9 302.4,34.3 693,34.1 976.2,155.3 286.8,122.8 380.6,444.9 779.7,343.9 177,-44.7 333.4,-214.2 511.1,-230.2 412.1,-37 891.6,178.9 1284.8,272.4 459.6,109.4 929.8,176.1 1398.8,230.9 508.7,59.5 1361.7,21.5 1787.9,361.4 316.5,252.5 346.3,864.2 426.5,1224.2 260,1169.5 272.5,2253.8 -116.8,3391.8 -58.3,170.3 -119.1,444 -249.6,581.6 -84,88.8 -661.7,-549.4 -1196.9,-1013.6 -365.6,-316.8 -339.3,-857.7 -735.4,-1167.9 -408,-319.3 -1047.2,-252.8 -1396.5,-622.8 -488.3,-517.4 -397.7,-1056.4 -1076.6,-1447 -771.9,-444 -1426.4,-894.7 -2099.2,-1471.1 -217.3,-186.1 -431.8,-362.3 -671,-519.4 -36.1,-23.7 -500.6,-294.1 -341.7,-241.8"
         style="fill:#fbc33d;fill-opacity:1;fill-rule:evenodd;stroke:none"
         id="path296" /><path
         d="m 24161.3,11780 c -38.4,-129.7 -1112.5,-1230.4 -1255.8,-1364.3 -1016.9,-950.4 -2104.6,-1823.4 -3096.7,-2798.8 -171.9,-168.9 -1260,-997.7 -1248,-1176.7 1.9,-30.1 25.6,-42.7 53.2,-45.5 295.8,-29.6 587.1,177.7 889.7,58.1 313.3,-123.9 112.3,-669.5 334.6,-776.9 31.9,-15.4 1029.4,-322.1 1061.5,-321.2 209.4,5.9 294.2,301.8 538.8,176.8 455.7,-232.8 -38,-709.7 606.1,-898 165.7,-48.3 360.2,-114.7 534.1,-72.6 593.7,144.1 1344.2,1080.4 1802,1489.1 474.4,423.8 1069.3,723.4 1510.4,1179.1 198.8,205.3 133,542.1 328,701.4 286.2,233.6 715,82.4 970.6,365.1 374.4,414.2 466.7,1008.9 836.1,1430.1 298,340 1704.1,979.8 1771.5,1304.4 34.4,167.2 -421.7,214.7 -503.7,229.6 -584.1,105.9 -1182.8,152.1 -1771.3,231.5 -807.3,108.7 -1624.2,160.8 -2427.2,299.6 -261.4,45.3 -734.4,281.9 -933.9,-10.8"
         style="fill:#fcd66a;fill-opacity:1;fill-rule:evenodd;stroke:none"
         id="path298" /><path
         d="m 26165.6,6969.4 c 0,0 206.5,-74.5 377.4,60.9 279.7,221.7 124.7,415.4 124.7,415.4 -106.2,28 -294.3,2.3 -367.4,-38.2 0,0 366.9,5.7 253.3,-216.6 -122.5,-239.6 -388,-221.5 -388,-221.5"
         style="fill:#f8a113;fill-opacity:1;fill-rule:evenodd;stroke:none"
         id="path300" /><path
         d="m 22560.3,6512.2 c 710.7,-320.6 934.4,531.3 621.5,820.9 -467.2,432.3 -1135.4,-392.4 -621.5,-820.9"
         style="fill:#fabc2d;fill-opacity:1;fill-rule:evenodd;stroke:none"
         id="path302" /><path
         d="m 22442.5,6658.3 c 0,0 -60.1,445.3 304.4,589.5 355,140.3 546.2,-94.1 546.2,-94.1 0,0 -157.6,523 -630,238.7 -480.3,-289.1 -220.6,-734.1 -220.6,-734.1"
         style="fill:#f8a116;fill-opacity:1;fill-rule:evenodd;stroke:none"
         id="path304" /><path
         d="m 26068.9,10495.8 c -303.3,-427.4 -527.7,-146.7 -414.3,106.2 169.4,377.5 606.9,288.7 414.3,-106.2"
         style="fill:#fab621;fill-opacity:1;fill-rule:evenodd;stroke:none"
         id="path306" /><path
         d="m 26111.5,10623.3 c 0,0 -24.6,227.1 -221.9,142.4 -192.1,-82.6 -265,-287 -265,-287 0,0 6.1,291.8 275,359.1 273.4,68.5 211.9,-214.5 211.9,-214.5"
         style="fill:#f8a116;fill-opacity:1;fill-rule:evenodd;stroke:none"
         id="path308" /><path
         d="m 23911.2,9461.6 c -55.2,135.4 -151.2,266.2 -250.6,325.5 -322.7,192.5 -819.2,-51.7 -877.7,-548.7 -52.9,-448.9 430.6,-612.1 781.1,-439.2 256.5,126.6 461.3,382.4 347.2,662.4"
         style="fill:#fabc2d;fill-opacity:1;fill-rule:evenodd;stroke:none"
         id="path310" /><path
         d="m 22909.4,8865.3 c 0,0 -152.2,395.3 85.5,638.1 470.4,480.5 894.1,-9.5 894.1,-9.5 0,0 -376.7,834.5 -964.9,175.2 -407.9,-457.4 -14.7,-803.8 -14.7,-803.8"
         style="fill:#f8a116;fill-opacity:1;fill-rule:evenodd;stroke:none"
         id="path312" /><path
         d="m 26548.9,9445 c -82.6,-29.1 -170.1,-81.7 -219.6,-138 -160.8,-182.5 -117.2,-474.9 140,-519.4 232.3,-40.1 405.8,236 374.8,442.4 -22.8,151.1 -124.2,275.1 -295.2,215"
         style="fill:#fabc2d;fill-opacity:1;fill-rule:evenodd;stroke:none"
         id="path314" /><path
         d="m 26346.4,9329 c 0,0 201.7,115.4 292.9,23.9 233.1,-233.9 14.5,-532.5 14.5,-532.5 0,0 399.8,289.4 114.1,588.4 -163.8,171.5 -421.5,-79.8 -421.5,-79.8"
         style="fill:#f59615;fill-opacity:1;fill-rule:evenodd;stroke:none"
         id="path316" /><path
         d="m 20374.4,7673.2 c -39.9,-18.9 -45.5,-32.6 -62.8,-90.5 -25.7,-86.6 72.5,-129.5 133.3,-86.6 115.4,81.3 65.1,296.1 -70.5,177.1"
         style="fill:#f8a116;fill-opacity:1;fill-rule:evenodd;stroke:none"
         id="path318" /><path
         d="m 20767.4,6084.2 c -39.4,-56.7 -35.5,-78.1 -9.9,-162.8 38.3,-126.7 211.9,-95.5 259.7,7.8 91,196.2 -163,414 -249.8,155"
         style="fill:#f8a116;fill-opacity:1;fill-rule:evenodd;stroke:none"
         id="path320" /><path
         d="m 29188.9,9883.6 c -725.6,207.7 -1462.7,-526.8 -1281.8,-1255.2 528.8,35 1401,339.2 1281.8,1255.2"
         style="fill:#f9ae14;fill-opacity:1;fill-rule:evenodd;stroke:none"
         id="path322" /><path
         d="m 28222.9,9617.5 c 0,0 559,218.5 732.3,35 192.2,-203.4 -102.1,-678.4 -102.1,-678.4 0,0 225.3,193.5 315.1,422.8 58.5,148.8 27.8,490.1 27.8,490.1 -388.7,88.2 -711.1,-7.1 -973.1,-269.5"
         style="fill:#f59615;fill-opacity:1;fill-rule:evenodd;stroke:none"
         id="path324" /></g></g></svg>
